<?xml version="1.0" standalone="no"?>
<!DOCTYPE svg PUBLIC "-//W3C//DTD SVG 20010904//EN"
 "http://www.w3.org/TR/2001/REC-SVG-20010904/DTD/svg10.dtd">
<svg version="1.0" xmlns="http://www.w3.org/2000/svg"
 width="958.000000pt" height="1280.000000pt" viewBox="0 0 958.000000 1280.000000"
 preserveAspectRatio="xMidYMid meet">
<metadata>
Created by potrace 1.15, written by Peter Selinger 2001-2017
</metadata>
<g transform="translate(0.000000,1280.000000) scale(0.100000,-0.100000)"
fill="#000000" stroke="none">
<path d="M1930 12794 c-101 -18 -191 -57 -294 -127 -94 -64 -175 -153 -245
-272 -75 -126 -257 -484 -320 -630 -24 -55 -68 -153 -97 -217 -90 -194 -91
-234 -11 -353 53 -77 53 -104 -1 -180 -48 -68 -217 -440 -255 -561 -49 -154
-64 -324 -29 -324 5 0 8 -30 8 -67 -1 -72 16 -128 41 -138 22 -8 48 19 92 92
l37 62 0 -137 c0 -75 3 -189 8 -252 7 -105 6 -125 -17 -225 -56 -238 -79 -411
-79 -575 -1 -234 25 -315 139 -442 35 -40 71 -85 79 -100 49 -95 63 -368 25
-488 -11 -36 -84 -191 -162 -345 -184 -364 -229 -477 -426 -1050 -99 -290
-142 -392 -262 -633 -111 -222 -151 -338 -154 -447 -2 -64 0 -70 19 -73 16 -2
31 10 58 47 20 27 45 53 56 56 41 13 294 -49 318 -78 6 -7 17 -30 24 -52 7
-21 25 -47 39 -57 14 -11 146 -57 293 -103 356 -110 362 -115 360 -278 -2
-171 -88 -631 -159 -842 -18 -55 -62 -163 -98 -241 -80 -172 -121 -286 -142
-396 -25 -127 -30 -375 -11 -553 9 -82 26 -240 37 -350 20 -198 35 -311 84
-620 31 -196 32 -288 6 -331 -10 -17 -51 -57 -91 -90 -93 -75 -112 -101 -117
-161 -5 -58 34 -190 125 -423 53 -137 61 -166 67 -252 4 -54 13 -105 19 -114
16 -21 83 -21 104 0 10 10 22 60 34 138 15 107 21 126 43 145 33 29 70 38 100
25 14 -6 74 -74 135 -152 121 -152 162 -187 261 -221 55 -19 83 -22 202 -21
76 1 209 8 296 17 235 22 341 62 341 129 0 23 -44 91 -98 148 l-25 27 27 7
c14 3 44 26 65 51 49 55 66 121 46 169 -20 48 -44 57 -138 49 l-82 -7 -60 39
c-128 84 -372 302 -468 421 -63 77 -98 144 -118 222 -19 76 -17 420 5 625 96
918 210 1408 406 1735 122 204 115 174 115 485 l0 269 49 18 c55 19 66 31 66
69 0 24 4 27 53 33 28 3 72 9 97 12 l44 6 132 -137 c178 -186 192 -182 214 53
5 59 10 188 10 287 0 186 -1 194 -79 705 -36 242 -89 631 -97 727 -6 63 -5 73
10 79 23 9 143 -40 237 -97 92 -56 119 -65 227 -78 91 -12 102 -15 102 -36 0
-7 25 -94 55 -193 67 -219 102 -364 110 -457 15 -168 30 -248 105 -555 76
-310 121 -530 120 -588 -1 -25 -14 -33 -149 -99 -246 -120 -438 -259 -641
-462 -357 -359 -587 -820 -666 -1336 -25 -165 -26 -513 -1 -675 117 -760 552
-1386 1222 -1759 532 -296 1184 -368 1790 -199 385 107 746 320 1035 608 364
365 597 833 677 1360 23 156 24 492 0 645 -9 61 -15 117 -14 125 1 8 -9 69
-22 136 -14 66 -22 128 -18 137 4 10 19 22 34 29 45 18 199 26 318 17 180 -13
252 -45 296 -131 19 -36 62 -209 109 -434 58 -280 145 -1053 126 -1128 -6 -23
-11 -26 -51 -26 -62 0 -263 -54 -348 -93 -170 -79 -232 -240 -197 -513 36
-293 140 -465 369 -616 96 -63 161 -82 262 -76 141 8 238 76 309 219 51 101
110 274 117 345 5 48 2 59 -36 128 -47 87 -44 93 37 82 26 -3 150 -10 276 -15
210 -8 231 -11 255 -30 72 -58 140 -69 463 -78 l217 -6 65 32 c72 35 121 87
136 142 11 41 5 68 -39 159 -41 86 -40 112 9 184 43 63 100 223 100 279 0 22
-8 41 -23 55 -21 20 -34 22 -130 22 -122 0 -263 19 -422 57 -214 51 -307 92
-367 162 -40 47 -118 192 -153 286 -14 37 -33 81 -42 99 -14 26 -16 83 -18
406 -2 462 -19 664 -105 1265 -51 350 -71 450 -108 528 -53 113 -163 212 -328
297 -119 61 -181 77 -452 115 -123 17 -322 61 -375 82 -26 11 -56 38 -95 87
-146 183 -362 411 -442 465 -63 43 -278 158 -360 193 -55 23 -58 23 -455 23
-366 0 -403 2 -428 18 -36 23 -43 58 -27 142 35 189 21 292 -61 430 -22 39
-105 195 -182 347 l-141 278 2 88 c3 101 -4 115 -63 135 -39 13 -40 16 -43 63
-8 122 41 374 88 448 36 56 100 87 243 117 138 29 161 43 176 106 13 56 8 235
-8 276 -17 43 -15 45 44 63 67 21 95 46 95 82 0 15 -25 68 -57 121 l-58 95 -5
136 -5 135 -48 89 c-40 75 -47 96 -47 145 0 51 -3 60 -32 88 -18 17 -58 47
-88 67 -30 19 -77 51 -103 71 -54 39 -153 73 -237 81 -55 6 -74 2 -211 -52
-46 -18 -47 -18 -91 5 l-44 24 -81 -27 c-45 -15 -141 -56 -213 -92 -154 -76
-216 -130 -244 -209 -38 -112 -47 -562 -12 -671 21 -66 79 -155 155 -236 72
-77 99 -134 108 -222 8 -94 -15 -135 -157 -275 -63 -62 -135 -127 -160 -144
-78 -52 -109 -88 -139 -161 -16 -39 -34 -109 -41 -156 -7 -47 -16 -91 -20 -98
-4 -9 -24 15 -56 69 -52 89 -89 122 -158 140 -70 19 -192 13 -311 -14 -60 -14
-161 -31 -222 -37 -172 -19 -162 -34 -188 285 -20 260 -42 722 -56 1200 -11
366 -10 405 5 465 25 97 77 196 150 285 90 110 108 150 114 257 4 75 1 100
-22 173 -29 92 -50 126 -210 331 -120 155 -214 299 -267 408 l-40 81 6 175
c10 306 3 293 156 300 106 5 112 7 135 33 13 15 28 46 34 70 29 114 85 284 98
300 8 9 21 17 28 17 7 0 26 12 43 26 44 37 40 69 -20 185 -58 110 -58 94 1
259 38 106 41 122 38 201 -3 74 -7 94 -38 154 -19 38 -58 93 -86 121 -43 44
-62 56 -124 75 -60 18 -75 27 -89 53 -9 17 -30 45 -47 63 -31 32 -34 33 -118
33 -77 0 -93 3 -149 32 -52 26 -75 32 -142 34 -44 1 -91 0 -105 -2z m4355
-7803 c47 -5 59 -9 55 -21 -12 -39 -4 -138 13 -163 10 -15 14 -27 10 -27 -5 0
-84 -18 -178 -41 -276 -66 -454 -100 -551 -106 -90 -6 -92 -5 -108 20 -38 57
-45 227 -10 261 8 8 36 18 62 21 26 4 101 17 167 30 66 14 134 26 150 28 50 7
326 5 390 -2z m-2637 -901 c24 -76 135 -540 130 -545 -3 -3 -371 480 -376 495
-4 12 211 131 219 122 4 -4 16 -36 27 -72z m-58 -340 c193 -257 211 -285 225
-343 18 -79 76 -438 73 -449 -2 -4 -182 184 -401 419 l-398 428 58 52 c50 46
219 173 229 173 2 0 98 -126 214 -280z m-94 -415 c426 -459 451 -491 415 -536
-14 -18 -22 -20 -44 -13 -14 5 -241 171 -503 369 -263 198 -485 365 -493 371
-13 10 -9 20 29 68 24 32 73 89 108 127 52 57 67 68 77 57 6 -7 192 -206 411
-443z m-191 -164 c229 -172 414 -315 412 -317 -2 -2 -199 80 -438 182 -239
102 -467 199 -506 215 l-73 31 22 41 c11 23 43 77 70 120 l50 77 23 -17 c13
-10 211 -159 440 -332z m-10 -167 c292 -124 541 -233 554 -243 22 -17 23 -21
12 -54 -7 -20 -17 -39 -22 -43 -9 -5 -46 3 -274 56 -84 20 -721 167 -888 205
-54 12 -100 25 -104 28 -7 8 39 139 83 235 l33 73 38 -16 c21 -9 277 -117 568
-241z m-90 -225 c341 -78 621 -143 622 -143 1 -1 -4 -25 -11 -53 -8 -29 -17
-80 -21 -114 l-7 -61 -72 7 c-39 4 -330 39 -646 78 l-575 72 3 45 c8 124 55
322 75 315 6 -2 291 -68 632 -146z m2685 41 c-41 -9 -156 -36 -255 -59 -99
-22 -238 -54 -309 -71 -72 -16 -137 -30 -146 -30 -23 0 -46 66 -29 86 14 17
132 75 174 85 17 4 167 7 335 7 l305 0 -75 -18z m410 10 l57 0 16 -97 c33
-197 33 -181 -5 -187 -18 -4 -238 -31 -488 -62 -250 -30 -501 -61 -557 -68
l-103 -12 -4 30 c-3 17 -10 65 -17 106 -8 41 -14 79 -14 85 0 5 198 56 440
112 425 99 443 103 529 98 49 -3 115 -5 146 -5z m-1090 -9 c0 -5 -21 -19 -47
-31 l-47 -22 -17 24 -18 23 42 6 c67 10 87 10 87 0z m-2062 -360 c348 -43 634
-80 636 -82 2 -2 7 -23 11 -46 7 -42 7 -42 -32 -52 -32 -10 -1107 -71 -1230
-71 l-41 0 -7 94 c-8 110 2 236 19 236 6 0 296 -36 644 -79z m3253 -91 c0 -84
-2 -154 -3 -155 -2 -2 -70 1 -153 6 -82 5 -330 18 -550 29 -220 11 -419 25
-442 31 -41 11 -43 13 -43 51 0 26 5 41 16 45 17 6 1167 151 1172 147 2 -1 3
-71 3 -154z m-2583 -162 c6 -23 10 -43 9 -44 -5 -4 -915 -468 -1035 -528
l-133 -66 -20 47 c-29 66 -94 262 -88 267 2 2 207 66 454 141 248 76 513 157
590 180 77 24 156 44 176 44 35 1 37 -1 47 -41z m1602 -2 c564 -170 916 -279
923 -285 13 -13 -79 -291 -97 -291 -10 0 -1046 527 -1058 539 -4 4 -3 23 3 44
9 34 13 37 47 37 20 0 102 -20 182 -44z m-2000 -30 c-428 -133 -866 -266 -872
-266 -8 0 -35 121 -46 207 l-9 62 41 5 c23 3 232 15 466 26 234 12 441 22 460
24 19 1 64 3 100 4 64 1 62 0 -140 -62z m2593 34 c202 -11 370 -20 372 -20 10
0 5 -66 -11 -152 -9 -49 -21 -88 -27 -88 -12 0 -382 112 -747 226 l-205 64
125 -5 c69 -3 290 -14 493 -25z m-158 -410 c209 -106 382 -195 385 -197 7 -6
-82 -178 -130 -253 -40 -61 -41 -62 -65 -46 -13 9 -237 154 -497 323 -260 168
-477 310 -482 314 -5 4 8 33 28 64 21 30 46 76 57 101 l20 45 152 -79 c84 -44
323 -166 532 -272z m-1985 278 c18 -35 45 -79 61 -99 l28 -35 -542 -352 c-298
-194 -546 -353 -552 -354 -13 -3 -93 116 -149 223 l-46 87 577 295 c318 162
581 296 585 296 4 1 21 -27 38 -61z m1679 -478 c275 -179 501 -329 501 -334 0
-19 -177 -236 -193 -236 -15 0 -842 780 -860 811 -17 30 -17 31 10 60 16 16
31 28 34 27 4 -2 232 -149 508 -328z m-1545 291 c26 -27 27 -31 14 -56 -8 -14
-219 -217 -469 -451 l-454 -425 -69 73 c-84 89 -148 168 -144 179 3 8 1079
709 1089 709 3 0 18 -13 33 -29z m999 -104 c21 -27 599 -916 621 -954 6 -12
-103 -92 -215 -157 l-46 -26 -23 52 c-76 176 -453 1066 -457 1079 -3 10 7 24
28 37 39 24 56 18 92 -31z m-896 22 c19 -12 32 -26 29 -33 -135 -322 -497
-1171 -500 -1173 -12 -13 -288 147 -282 163 9 22 658 1019 679 1042 25 27 31
27 74 1z m813 -176 c35 -82 139 -328 232 -548 94 -220 174 -410 179 -423 8
-22 4 -26 -74 -61 -89 -42 -221 -91 -241 -91 -8 0 -26 42 -44 102 -44 144
-321 1050 -327 1069 -4 12 13 22 79 43 47 16 93 34 103 42 10 7 21 14 25 14 3
0 34 -66 68 -147z m-635 94 c50 -17 91 -32 92 -32 2 -1 -6 -28 -16 -61 -11
-32 -95 -304 -186 -604 -92 -300 -169 -548 -171 -552 -7 -11 -320 87 -343 108
-3 2 384 924 475 1133 19 43 27 52 41 46 10 -4 59 -22 108 -38z m-431 -144
c-42 -65 -178 -274 -302 -465 l-225 -347 -76 59 c-114 89 -134 107 -130 117 2
6 178 173 391 371 213 199 389 366 393 372 3 5 10 10 16 10 5 0 -25 -53 -67
-117z m815 -59 c254 -828 311 -1018 304 -1024 -11 -11 -177 -48 -248 -56 l-61
-6 -27 223 c-15 123 -47 389 -72 590 -24 203 -42 381 -38 402 5 33 9 36 42 39
20 2 39 1 44 -3 4 -3 29 -77 56 -165z m457 155 c10 -12 176 -168 368 -348
l349 -326 -54 -48 c-79 -71 -139 -120 -142 -116 -2 2 -124 191 -272 419 -147
228 -272 421 -278 428 -17 21 8 14 29 -9z m-633 -26 c4 -22 -14 -206 -43 -438
-27 -220 -59 -487 -72 -593 l-23 -192 -47 0 c-59 0 -260 29 -271 39 -4 4 21
102 57 217 81 264 274 894 293 957 14 47 14 47 57 47 42 0 44 -1 49 -37z m50
-405 c15 -128 41 -341 58 -473 16 -132 32 -263 35 -291 l6 -52 -126 -7 c-70
-4 -130 -5 -133 -1 -3 3 20 218 52 478 32 260 60 497 63 526 2 28 7 52 11 52
3 0 19 -105 34 -232z m3031 -639 c27 -31 33 -63 17 -88 -8 -12 -14 -12 -40 -1
-43 17 -71 56 -71 96 0 55 45 52 94 -7z"/>
</g>
</svg>
