<?xml version="1.0" encoding="utf-8"?>
<!-- Generator: Adobe Illustrator 22.1.0, SVG Export Plug-In . SVG Version: 6.00 Build 0)  -->
<svg version="1.1" id="Icon_Set" xmlns="http://www.w3.org/2000/svg" xmlns:xlink="http://www.w3.org/1999/xlink" x="0px" y="0px"
	 viewBox="0 0 512 512" style="enable-background:new 0 0 512 512;" xml:space="preserve">
<style type="text/css">
	.st0{fill:#F0C48A;}
	.st1{fill:#FD919E;}
	.st2{fill:#4C4372;}
	.st3{fill:#D3E6F8;}
	.st4{fill:#A4CFF2;}
	.st5{fill:#7BABF1;}
	.st6{fill:#FFFFFF;}
	.st7{fill:#E8677D;}
	.st8{fill:none;stroke:#4C4372;stroke-width:12;stroke-linecap:round;stroke-linejoin:round;stroke-miterlimit:10;}
</style>
<g id="First_Aid_Kit">
	<g>
		<g>
			<circle class="st0" cx="256" cy="256" r="207"/>
		</g>
	</g>
	<g>
		<g>
			<path class="st6" d="M388.835,380.397H123.166c-11.358,0-20.566-9.208-20.566-20.566V198.186
				c0-11.358,9.208-20.566,20.566-20.566h265.669c11.358,0,20.566,9.208,20.566,20.566v161.646
				C409.4,371.19,400.193,380.397,388.835,380.397z"/>
		</g>
		<g>
			<path class="st3" d="M388.834,177.62h-25.398v202.777h25.398c11.358,0,20.566-9.208,20.566-20.566V198.186
				C409.4,186.827,400.193,177.62,388.834,177.62z"/>
		</g>
		<g>
			<g>
				<path class="st5" d="M322.371,177.62h-25v-30.891c0-5.584-4.543-10.126-10.127-10.126h-55.832
					c-5.584,0-10.127,4.542-10.127,10.126v30.891h-25v-30.891c0-19.369,15.758-35.126,35.127-35.126h55.832
					c19.369,0,35.127,15.758,35.127,35.126V177.62z"/>
			</g>
		</g>
		<g>
			<path class="st5" d="M186.53,250.453h-30.133c-5.483,0-9.928-4.445-9.928-9.928v-13.607h49.99v13.607
				C196.458,246.008,192.013,250.453,186.53,250.453z"/>
		</g>
		<g>
			<path class="st5" d="M362.433,250.453h-30.134c-5.483,0-9.928-4.445-9.928-9.928v-13.607h49.99v13.607
				C372.361,246.008,367.916,250.453,362.433,250.453z"/>
		</g>
		<g>
			<g>
				<polygon class="st1" points="302.065,284.207 271.802,284.207 271.802,253.943 240.198,253.943 240.198,284.207 
					209.935,284.207 209.935,315.81 240.198,315.81 240.198,346.074 271.802,346.074 271.802,315.81 302.065,315.81 				"/>
			</g>
			<g>
				<path class="st2" d="M271.802,352.074h-31.604c-3.313,0-6-2.687-6-6v-24.263h-24.264c-3.313,0-6-2.687-6-6v-31.604
					c0-3.313,2.687-6,6-6h24.264v-24.263c0-3.313,2.687-6,6-6h31.604c3.313,0,6,2.687,6,6v24.263h24.264c3.313,0,6,2.687,6,6v31.604
					c0,3.313-2.687,6-6,6h-24.264v24.263C277.802,349.387,275.115,352.074,271.802,352.074z M246.198,340.074h19.604v-24.263
					c0-3.313,2.687-6,6-6h24.264v-19.604h-24.264c-3.313,0-6-2.687-6-6v-24.263h-19.604v24.263c0,3.313-2.687,6-6,6h-24.264v19.604
					h24.264c3.313,0,6,2.687,6,6V340.074z"/>
			</g>
		</g>
		<g>
			<path class="st2" d="M388.835,386.397h-265.67c-14.648,0-26.565-11.917-26.565-26.565V198.186
				c0-14.648,11.917-26.565,26.565-26.565h265.67c14.648,0,26.565,11.917,26.565,26.565v161.646
				C415.4,374.48,403.483,386.397,388.835,386.397z M123.165,183.62c-8.031,0-14.565,6.534-14.565,14.565v161.646
				c0,8.031,6.534,14.565,14.565,14.565h265.67c8.031,0,14.565-6.534,14.565-14.565V198.186c0-8.031-6.534-14.565-14.565-14.565
				H123.165z"/>
		</g>
		<g>
			<g>
				<path class="st2" d="M322.371,183.62h-25c-3.313,0-6-2.687-6-6v-30.891c0-2.275-1.852-4.127-4.127-4.127h-55.832
					c-2.275,0-4.127,1.852-4.127,4.127v30.891c0,3.313-2.687,6-6,6h-25c-3.313,0-6-2.687-6-6v-30.891
					c0-22.677,18.449-41.127,41.127-41.127h55.832c22.678,0,41.127,18.45,41.127,41.127v30.891
					C328.371,180.934,325.685,183.62,322.371,183.62z M303.371,171.62h13v-24.891c0-16.061-13.066-29.127-29.127-29.127h-55.832
					c-16.061,0-29.127,13.066-29.127,29.127v24.891h13v-24.891c0-8.893,7.234-16.127,16.127-16.127h55.832
					c8.893,0,16.127,7.234,16.127,16.127V171.62z"/>
			</g>
		</g>
		<g>
			<path class="st2" d="M409.4,232.917H102.6c-3.313,0-6-2.687-6-6s2.687-6,6-6H409.4c3.313,0,6,2.687,6,6
				S412.714,232.917,409.4,232.917z"/>
		</g>
		<g>
			<path class="st2" d="M186.53,256.453h-30.134c-8.783,0-15.929-7.146-15.929-15.928v-13.607c0-3.313,2.687-6,6-6h49.99
				c3.313,0,6,2.687,6,6v13.607C202.458,249.307,195.312,256.453,186.53,256.453z M152.468,232.917v7.607
				c0,2.166,1.763,3.928,3.929,3.928h30.134c2.166,0,3.928-1.762,3.928-3.928v-7.607H152.468z"/>
		</g>
		<g>
			<path class="st2" d="M362.433,256.453H332.3c-8.783,0-15.929-7.146-15.929-15.928v-13.607c0-3.313,2.687-6,6-6h49.99
				c3.313,0,6,2.687,6,6v13.607C378.361,249.307,371.216,256.453,362.433,256.453z M328.371,232.917v7.607
				c0,2.166,1.763,3.928,3.929,3.928h30.133c2.166,0,3.929-1.762,3.929-3.928v-7.607H328.371z"/>
		</g>
	</g>
</g>
</svg>
